<svg width="32" height="32" viewBox="0 0 32 32" fill="none" xmlns="http://www.w3.org/2000/svg">
<path d="M3 15C2.20435 15 1.44129 14.6839 0.87868 14.1213C0.31607 13.5587 0 12.7956 0 12L0 4C0 2.93913 0.421427 1.92172 1.17157 1.17157C1.92172 0.421429 2.93913 0 4 0H28C29.0609 0 30.0783 0.421429 30.8284 1.17157C31.5786 1.92172 32 2.93913 32 4V28C32 29.0609 31.5786 30.0783 30.8284 30.8284C30.0783 31.5786 29.0609 32 28 32H4C2.93913 32 1.92172 31.5786 1.17157 30.8284C0.421427 30.0783 0 29.0609 0 28L0 16C0.836 16.628 1.874 17 3 17H18.586L13.292 22.292C13.199 22.385 13.1253 22.4954 13.075 22.6168C13.0246 22.7383 12.9987 22.8685 12.9987 23C12.9987 23.1315 13.0246 23.2617 13.075 23.3832C13.1253 23.5046 13.199 23.615 13.292 23.708C13.385 23.801 13.4954 23.8747 13.6168 23.925C13.7383 23.9754 13.8685 24.0013 14 24.0013C14.1315 24.0013 14.2617 23.9754 14.3832 23.925C14.5046 23.8747 14.615 23.801 14.708 23.708L21.708 16.708C21.8011 16.6151 21.875 16.5048 21.9254 16.3833C21.9758 16.2618 22.0018 16.1315 22.0018 16C22.0018 15.8685 21.9758 15.7382 21.9254 15.6167C21.875 15.4952 21.8011 15.3849 21.708 15.292L14.708 8.292C14.5202 8.10423 14.2656 7.99874 14 7.99874C13.7344 7.99874 13.4798 8.10423 13.292 8.292C13.1042 8.47977 12.9987 8.73445 12.9987 9C12.9987 9.26555 13.1042 9.52023 13.292 9.708L18.586 15H3Z" fill="#142239"/>
</svg>
